<svg xmlns="http://www.w3.org/2000/svg" width="2172" height="724" viewBox="0 0 2172 724"><defs><linearGradient id="wood" x2=".1" y2="1"><stop stop-color="#ad8162"/><stop offset=".45" stop-color="#79536b"/><stop offset="1" stop-color="#46394f"/></linearGradient><linearGradient id="edge" x2="0" y2="1"><stop stop-color="#d6ab78"/><stop offset="1" stop-color="#705167"/></linearGradient></defs><g transform="translate(-1 0)"><path d="M1030 431 Q1086 426 1143 431 L1145 459 Q1086 466 1029 459 Z" fill="#262b40" opacity=".48" transform="translate(2 4)"/><path d="M1029 428 Q1085 425 1145 429 L1146 458 Q1085 463 1028 458 Z" fill="url(#wood)" stroke="#3c3248" stroke-width="2.2"/><path d="M1033 432 Q1088 428 1141 433 L1141 454 Q1085 459 1033 454 Z" fill="none" stroke="url(#edge)" stroke-width="1.7" opacity=".85"/><path d="M1042 436 Q1078 433 1107 435 M1116 437 L1134 438 M1039 451 Q1086 455 1136 451" fill="none" stroke="#ba8e72" stroke-width=".9" opacity=".37"/><circle cx="1042" cy="442" r="1.8" fill="#d3ae7e"/><circle cx="1131" cy="442" r="1.8" fill="#d3ae7e"/></g></svg>