<svg xmlns="http://www.w3.org/2000/svg" width="2172" height="724" viewBox="0 0 2172 724"><g transform="translate(1045 432) scale(.75 .72)"><path d="M11 2 Q10 9 8 11 M3 9 Q11 7 20 8 M11 8 Q8 14 2 16 M11 8 Q15 14 22 16" fill="none" stroke="#fae5ba" stroke-width="2.6" stroke-linecap="round" stroke-linejoin="round" /><path d="M11 2 Q10 9 8 11 M3 9 Q11 7 20 8 M11 8 Q8 14 2 16 M11 8 Q15 14 22 16" fill="none" stroke="#c69b68" stroke-width="0.55" stroke-linecap="round" stroke-linejoin="round" transform="translate(.45 .65)" opacity=".38"/><path d="M5 18 L18 18 M4 22 L20 22 M11 22 L11 29 M7 25 L3 29 M15 25 L20 29" fill="none" stroke="#fae5ba" stroke-width="2.35" stroke-linecap="round" stroke-linejoin="round" /><path d="M5 18 L18 18 M4 22 L20 22 M11 22 L11 29 M7 25 L3 29 M15 25 L20 29" fill="none" stroke="#c69b68" stroke-width="0.55" stroke-linecap="round" stroke-linejoin="round" transform="translate(.45 .65)" opacity=".38"/></g><g transform="translate(1072 432) scale(.75 .72)"><path d="M7 2 Q5 9 2 12 M5 9 L5 29 M10 5 L21 5 M19 5 L19 27 Q19 29 16 28" fill="none" stroke="#fae5ba" stroke-width="2.6" stroke-linecap="round" stroke-linejoin="round" /><path d="M7 2 Q5 9 2 12 M5 9 L5 29 M10 5 L21 5 M19 5 L19 27 Q19 29 16 28" fill="none" stroke="#c69b68" stroke-width="0.55" stroke-linecap="round" stroke-linejoin="round" transform="translate(.45 .65)" opacity=".38"/><path d="M10 11 L16 11 L16 22 L10 22 Z" fill="none" stroke="#fae5ba" stroke-width="2.15" stroke-linecap="round" stroke-linejoin="round" /><path d="M10 11 L16 11 L16 22 L10 22 Z" fill="none" stroke="#c69b68" stroke-width="0.55" stroke-linecap="round" stroke-linejoin="round" transform="translate(.45 .65)" opacity=".38"/></g><g transform="translate(1098 432) scale(.75 .72)"><path d="M5 2 L5 29 M1 9 L9 9 M5 11 Q3 18 1 21 M6 15 L9 18" fill="none" stroke="#fae5ba" stroke-width="2.6" stroke-linecap="round" stroke-linejoin="round" /><path d="M5 2 L5 29 M1 9 L9 9 M5 11 Q3 18 1 21 M6 15 L9 18" fill="none" stroke="#c69b68" stroke-width="0.55" stroke-linecap="round" stroke-linejoin="round" transform="translate(.45 .65)" opacity=".38"/><path d="M13 5 Q18 4 21 2 M10 10 L23 10 M15 10 Q13 16 10 18 M18 10 Q20 16 24 18" fill="none" stroke="#fae5ba" stroke-width="2.6" stroke-linecap="round" stroke-linejoin="round" /><path d="M13 5 Q18 4 21 2 M10 10 L23 10 M15 10 Q13 16 10 18 M18 10 Q20 16 24 18" fill="none" stroke="#c69b68" stroke-width="0.55" stroke-linecap="round" stroke-linejoin="round" transform="translate(.45 .65)" opacity=".38"/><path d="M14 19 Q14 25 10 29 M20 19 L20 29" fill="none" stroke="#fae5ba" stroke-width="2.35" stroke-linecap="round" stroke-linejoin="round" /><path d="M14 19 Q14 25 10 29 M20 19 L20 29" fill="none" stroke="#c69b68" stroke-width="0.55" stroke-linecap="round" stroke-linejoin="round" transform="translate(.45 .65)" opacity=".38"/></g></svg>