<svg xmlns="http://www.w3.org/2000/svg" width="320" height="160" viewBox="0 0 320 160"><defs>
<linearGradient id="cream" x1=".25" y1="0" x2=".7" y2="1"><stop stop-color="#fffaf0"/><stop offset=".53" stop-color="#fff2df"/><stop offset=".8" stop-color="#e8eefa"/><stop offset="1" stop-color="#b4c6e6"/></linearGradient>
<linearGradient id="tail" x1=".2" y1="0" x2=".8" y2="1"><stop stop-color="#e5eafa"/><stop offset="1" stop-color="#a0b9db"/></linearGradient>
<linearGradient id="blush" x1="0" y1="0" x2="1" y2="1"><stop stop-color="#f8a5a2" stop-opacity=".72"/><stop offset="1" stop-color="#f9c1ad" stop-opacity="0"/></linearGradient>
<linearGradient id="wood" x1="0" y1="0" x2="0" y2="1"><stop stop-color="#d1975d"/><stop offset=".4" stop-color="#ab6639"/><stop offset="1" stop-color="#633925"/></linearGradient>
<linearGradient id="woodLeg" x1="0" y1="0" x2="1" y2="1"><stop stop-color="#985633"/><stop offset="1" stop-color="#51352b"/></linearGradient>
</defs><g id="BENCH_01">
<g id="BENCH_BACK"><path d="M20 75 L33 60 Q35 55 44 55 L283 55 Q292 56 295 62 L301 79 L292 95 L28 95Z" fill="url(#wood)" stroke="#422a2e" stroke-width="5" stroke-linejoin="round"/><path d="M38 65 Q150 59 282 66" fill="none" stroke="#f0bd7c" stroke-width="4" opacity=".65"/><path d="M38 80 Q120 74 208 79 Q260 82 288 78" fill="none" stroke="#70442f" stroke-width="3" opacity=".65"/></g>
<g id="BENCH_FRONT"><path d="M55 93 L84 96 L80 142 Q69 148 57 142Z M238 96 L268 92 L272 143 Q260 150 247 143Z" fill="url(#woodLeg)" stroke="#3d2c31" stroke-width="5" stroke-linejoin="round"/><path d="M34 91 Q159 99 292 91 L288 108 Q159 115 37 106Z" fill="#885233" stroke="#422c2e" stroke-width="4" stroke-linejoin="round"/><path d="M45 99 Q143 103 258 100" fill="none" stroke="#c0814b" stroke-width="3" opacity=".65"/></g></g></svg>